name C:\Users\tom_v\MusculoskeletalSpecialization\ResultsSprinting\Case_5\motion.mot
datacolumns 32
datarows 17
range 0.36486522 0.44270314
endheader 
time	pelvis_tilt	pelvis_list	pelvis_rotation	pelvis_tx	pelvis_ty	pelvis_tz	hip_flexion_r	hip_adduction_r	hip_rotation_r	knee_angle_r	ankle_angle_r	subtalar_angle_r	mtp_angle_r	hip_flexion_l	hip_adduction_l	hip_rotation_l	knee_angle_l	ankle_angle_l	subtalar_angle_l	mtp_angle_l	lumbar_extension	lumbar_bending	lumbar_rotation	arm_flex_r	arm_add_r	arm_rot_r	elbow_flex_r	arm_flex_l	arm_add_l	arm_rot_l	elbow_flex_l	
          0.36486522	        -12.71803142	        -14.59004636	         16.43195137	          3.13762398	          0.85693251	         -0.01932164	         58.36349089	         -4.33811511	         -9.47061369	        -41.84047848	         12.54010127	          2.21495420	         -1.82097552	          9.39197696	        -16.47184587	          9.15363198	        -28.45645128	          5.04660485	         -0.12234125	          5.88403728	          3.10216379	          8.74591581	        -10.73679082	        -68.16846598	        -41.32073484	          5.22550340	          8.87441652	         49.87956261	          4.01647352	          4.99394015	        114.19380223	
          0.36973009	        -12.01613078	        -14.77074134	         17.85809701	          3.17951462	          0.85921063	         -0.02218797	         58.60130285	         -5.49796927	         -9.83351637	        -40.58921780	         13.10687177	          1.05799233	         -1.74800776	          8.80522241	        -17.04105873	          9.71562075	        -30.95867792	          1.62764480	         -1.52141088	          1.07709159	          2.82603684	          9.53466080	        -12.98165858	        -68.87287656	        -41.29333438	         -3.77874432	          2.40633033	         49.96391747	          4.95382780	          9.21696329	        113.88350930	
          0.37459496	        -11.17218112	        -14.63494951	         19.20562317	          3.22132420	          0.86194802	         -0.02457785	         58.57549664	         -6.65236524	         -9.87663998	        -39.30786046	         13.67363888	         -0.09478526	         -1.62466378	          7.86826829	        -17.47631170	          9.95754584	        -32.78601379	         -2.68961258	         -3.12649562	         -4.26689030	          2.17922912	         10.02148314	        -15.25651055	        -69.78164259	        -41.95433636	        -11.50993584	          0.27507200	         49.96304550	          4.95537772	         13.16185669	        114.46475194	
          0.37945983	        -10.21287277	        -14.29507624	         20.50060765	          3.26301687	          0.86514488	         -0.02645885	         58.24177246	         -7.73921446	         -9.73297940	        -37.84067373	         14.31814555	         -1.22478747	         -1.65912947	          6.66550142	        -17.91224649	          9.96279587	        -33.93627106	         -9.81514171	         -4.07255771	          0.69402842	          1.20503957	         10.28520655	        -17.44399676	        -69.98351156	        -42.51394153	        -13.15944651	          0.26015666	         49.95844657	          4.96806876	         15.93960516	        114.93811561	
          0.38432470	         -9.19565066	        -13.86584953	         21.79702589	          3.30447996	          0.86861090	         -0.02793678	         57.62801337	         -8.76328317	         -9.54020387	        -36.11575619	         15.00685204	         -2.27184698	         -1.72925998	          5.37732884	        -18.40119945	          9.84563509	        -34.75957849	        -13.38541563	         -4.22228049	         -3.87799827	          0.01048027	         10.44866043	        -19.49982099	        -69.87075754	        -42.51389061	        -13.11909202	          3.15768473	         49.93138146	          4.98625500	         17.81914085	        114.74517963	
          0.38918957	         -8.11483830	        -13.36785386	         23.11780708	          3.34570470	          0.87231252	         -0.02908790	         56.69610293	         -9.72288478	         -9.32128795	        -34.10353506	         15.70782399	         -3.20374646	         -1.70729515	          4.09319124	        -18.91729429	          9.75118937	        -35.44008878	        -15.31133696	         -3.38607454	         -2.14636881	         -1.38998757	         10.57646506	        -21.39890760	        -69.95782934	        -41.91377219	        -11.25804351	          9.40679998	         49.79677593	          4.96180145	         18.91891402	        114.21653645	
          0.39405444	         -6.94313251	        -12.78685408	         24.46718258	          3.38669839	          0.87624687	         -0.02996475	         55.40430446	        -10.61163854	         -9.04816513	        -31.82139681	         16.43987204	         -3.99468359	         -1.80889117	          2.81449884	        -19.42208086	          9.69588554	        -36.05540283	        -15.90833993	         -2.60390993	          0.49315937	         -3.00569607	         10.68463887	        -23.11429323	        -69.96708281	        -41.42526487	         -3.29174241	         17.73230939	         49.65189124	          4.97754328	         19.36722042	        113.61448502	
          0.39891931	         -5.68343501	        -12.13121521	         25.85441037	          3.42742881	          0.88033129	         -0.03062844	         53.76783709	        -11.43507201	         -8.70806252	        -29.32209815	         17.15856607	         -4.66921275	         -2.02518218	          1.59486165	        -19.90420544	          9.69447533	        -36.63345001	        -16.60409929	         -2.89501403	          2.74293757	         -4.77991318	         10.81253128	        -24.64046041	        -69.96344381	        -41.74987981	          8.39398379	         28.97551229	         49.69432325	          4.97395618	         19.22826229	        112.70766612	
          0.40378418	         -4.39893586	        -11.46065313	         27.24421401	          3.46795195	          0.88437414	         -0.03109610	         51.89114706	        -12.15473444	         -8.27339452	        -26.67355724	         17.74122584	         -5.30658049	         -1.40617525	          0.53100088	        -20.39831847	          9.75328788	        -37.22326497	        -17.43194979	         -3.60623937	          4.12527704	         -6.54599631	         11.06614739	        -25.95233573	        -69.96833479	        -41.67973290	         16.07572208	         42.63468469	         49.85289823	          4.78255556	         18.14379091	        111.09284604	
          0.40864905	         -3.17976738	        -10.82743401	         28.55195476	          3.50844559	          0.88819887	         -0.03136518	         49.91130626	        -12.71880090	         -7.68945785	        -23.94124853	         18.29118186	         -5.83603760	          0.46484035	         -0.32123662	        -20.90387114	          9.84425083	        -37.84320541	        -17.82784119	         -3.79169393	          4.93907876	         -8.13345420	         11.47749189	        -27.01321780	        -69.95699839	        -39.73497596	         18.93834856	         55.62071943	         49.93146092	          4.26604655	         15.97725485	        108.18964445	
          0.41351392	         -2.05507341	        -10.22974636	         29.70832781	          3.54909828	          0.89178142	         -0.03144448	         47.87812552	        -13.11045250	         -6.95897346	        -21.16163707	         19.00717243	         -6.15691000	          2.56801639	         -1.00891216	        -21.37534979	          9.91909713	        -38.45463995	        -17.86082518	         -3.50577864	          5.54751532	         -9.48458759	         11.99141259	        -27.80796770	        -69.95663908	        -35.64628663	         19.36022934	         66.11917098	         49.90619453	          3.31041752	         12.95707952	        103.22626157	
          0.41837879	         -1.02764727	         -9.66832517	         30.70996359	          3.59003427	          0.89514169	         -0.03137466	         45.79361154	        -13.35357561	         -6.20918758	        -18.33895387	         19.87030565	         -6.31963879	          3.93456980	         -1.55976736	        -21.78799772	          9.96552766	        -39.02360917	        -17.86829148	         -3.24286238	          6.00042328	        -10.56872596	         12.56299480	        -28.42476656	        -69.96590997	        -29.89026755	         19.05653167	         73.45023634	         49.89428288	          1.81130655	          9.44729964	         95.57620053	
          0.42324366	         -0.12013917	         -9.15510286	         31.58370375	          3.63135634	          0.89825790	         -0.03116555	         43.68336641	        -13.48072867	         -5.58650479	        -15.47665189	         20.67027402	         -6.49953631	          4.84982144	         -1.94716918	        -22.13820776	          9.99454776	        -39.54535038	        -17.82639580	         -3.11127831	          6.26121336	        -11.34559153	         13.16429803	        -29.05093571	        -69.91921222	        -23.27646189	         19.07308824	         77.19367980	         49.92611923	         -0.42808425	          5.86421745	         85.46134966	
          0.42810853	          0.65425876	         -8.69621751	         32.32782184	          3.67318699	          0.90109339	         -0.03078291	         41.58201433	        -13.48971330	         -5.16156269	        -12.59852289	         21.27356933	         -6.77788916	          5.53604876	         -2.17441007	        -22.43108059	          9.98306692	        -40.01623495	        -17.57608307	         -2.95715060	          6.41344026	        -11.81020311	         13.78170709	        -29.85384156	        -69.92686791	        -16.39201678	         19.24485608	         77.03884117	         49.92279487	         -3.59865433	          2.52432547	         73.39046165	
          0.43297340	          1.25448770	         -8.26006625	         32.89305543	          3.71563773	          0.90357956	         -0.03009203	         39.59244605	        -13.38733018	         -4.90065786	         -9.80662741	         21.38998662	         -7.11804489	          6.05693719	         -2.25239832	        -22.61922450	          9.87268335	        -40.43572973	        -17.15745787	         -2.72091505	          6.54069045	        -11.97641864	         14.32613347	        -30.93118162	        -69.95749258	         -9.73766949	         19.36304611	         72.77415986	         49.92721774	         -8.14231822	          0.77635624	         59.37095751	
          0.43783827	          1.58286769	         -7.81739375	         33.13816943	          3.75883731	          0.90551633	         -0.02885463	         37.92393968	        -13.16672529	         -4.73372351	         -7.25104022	         21.00817298	         -7.27770513	          6.49342853	         -2.18282404	        -22.62262619	          9.51621162	        -40.80705014	        -16.63934417	         -2.40812249	          6.64364773	        -11.84296553	         14.65248193	        -32.28786244	        -69.95243943	         -3.86122050	         19.36142875	         65.01705366	         49.78590653	        -14.38783037	          3.14745368	         43.87511701	
          0.44270314	          1.68358664	         -7.52074862	         32.89466943	          3.80285616	          0.90676216	         -0.02696500	         36.66758241	        -12.60043412	         -4.68679576	         -4.97015332	         20.34047619	         -7.15049716	          6.71160777	         -2.02424913	        -22.60483529	          8.70560619	        -41.13881870	        -15.98920689	         -1.99593036	          6.72686789	        -11.49214250	         14.88514280	        -33.72931857	        -69.81815178	          0.69170151	         19.31902972	         55.28954559	         48.69825358	        -21.20696732	          9.56876379	         29.05023099	
